<mxfile host="app.diagrams.net" modified="2022-03-30T06:31:08.293Z" agent="5.0 (X11)" etag="wyQs0xsjW_jhfRm3AySj" version="17.2.5" type="github">
  <diagram id="3vVKirpilA6g24LbScqC" name="Page-1">
    <mxGraphModel dx="2858" dy="2224" grid="1" gridSize="10" guides="1" tooltips="1" connect="1" arrows="1" fold="1" page="1" pageScale="1" pageWidth="850" pageHeight="1100" math="0" shadow="0">
      <root>
        <mxCell id="0" />
        <mxCell id="1" parent="0" />
        <mxCell id="0-7ryQPBKPl0MrNLd8Y_-28" value="" style="rounded=0;whiteSpace=wrap;html=1;" vertex="1" parent="1">
          <mxGeometry x="-175" y="140" width="845" height="390" as="geometry" />
        </mxCell>
        <mxCell id="0-7ryQPBKPl0MrNLd8Y_-3" value="Site 1" style="rounded=0;whiteSpace=wrap;html=1;" vertex="1" parent="1">
          <mxGeometry x="-470" y="237.5" width="220" height="77.5" as="geometry" />
        </mxCell>
        <mxCell id="0-7ryQPBKPl0MrNLd8Y_-31" value="" style="edgeStyle=orthogonalEdgeStyle;rounded=0;orthogonalLoop=1;jettySize=auto;html=1;" edge="1" parent="1" source="0-7ryQPBKPl0MrNLd8Y_-5" target="0-7ryQPBKPl0MrNLd8Y_-29">
          <mxGeometry relative="1" as="geometry" />
        </mxCell>
        <mxCell id="0-7ryQPBKPl0MrNLd8Y_-5" value="" style="whiteSpace=wrap;html=1;aspect=fixed;" vertex="1" parent="1">
          <mxGeometry x="-150" y="200" width="230" height="230" as="geometry" />
        </mxCell>
        <mxCell id="0-7ryQPBKPl0MrNLd8Y_-6" value="Project Site" style="rounded=0;whiteSpace=wrap;html=1;" vertex="1" parent="1">
          <mxGeometry x="-130" y="242.5" width="190" height="67.5" as="geometry" />
        </mxCell>
        <mxCell id="0-7ryQPBKPl0MrNLd8Y_-7" value="Team " style="text;html=1;strokeColor=none;fillColor=none;align=center;verticalAlign=middle;whiteSpace=wrap;rounded=0;" vertex="1" parent="1">
          <mxGeometry x="20" y="100" width="60" height="30" as="geometry" />
        </mxCell>
        <mxCell id="0-7ryQPBKPl0MrNLd8Y_-33" style="edgeStyle=orthogonalEdgeStyle;rounded=0;orthogonalLoop=1;jettySize=auto;html=1;exitX=0;exitY=0.25;exitDx=0;exitDy=0;" edge="1" parent="1" source="0-7ryQPBKPl0MrNLd8Y_-9" target="0-7ryQPBKPl0MrNLd8Y_-29">
          <mxGeometry relative="1" as="geometry" />
        </mxCell>
        <mxCell id="0-7ryQPBKPl0MrNLd8Y_-9" value="Team member" style="rounded=0;whiteSpace=wrap;html=1;" vertex="1" parent="1">
          <mxGeometry x="450" y="240" width="120" height="60" as="geometry" />
        </mxCell>
        <mxCell id="0-7ryQPBKPl0MrNLd8Y_-18" style="edgeStyle=orthogonalEdgeStyle;rounded=0;orthogonalLoop=1;jettySize=auto;html=1;exitX=0;exitY=0.3333333333333333;exitDx=0;exitDy=0;exitPerimeter=0;entryX=1.014;entryY=0.377;entryDx=0;entryDy=0;entryPerimeter=0;" edge="1" parent="1" source="0-7ryQPBKPl0MrNLd8Y_-10" target="0-7ryQPBKPl0MrNLd8Y_-12">
          <mxGeometry relative="1" as="geometry" />
        </mxCell>
        <mxCell id="0-7ryQPBKPl0MrNLd8Y_-23" style="edgeStyle=orthogonalEdgeStyle;rounded=0;orthogonalLoop=1;jettySize=auto;html=1;exitX=0;exitY=1;exitDx=0;exitDy=0;exitPerimeter=0;" edge="1" parent="1" source="0-7ryQPBKPl0MrNLd8Y_-10">
          <mxGeometry relative="1" as="geometry">
            <mxPoint x="90" y="840" as="targetPoint" />
          </mxGeometry>
        </mxCell>
        <mxCell id="0-7ryQPBKPl0MrNLd8Y_-10" value="User 1" style="shape=umlActor;verticalLabelPosition=bottom;verticalAlign=top;html=1;outlineConnect=0;" vertex="1" parent="1">
          <mxGeometry x="290" y="767.5" width="30" height="60" as="geometry" />
        </mxCell>
        <mxCell id="0-7ryQPBKPl0MrNLd8Y_-11" value="Project" style="text;html=1;strokeColor=none;fillColor=none;align=center;verticalAlign=middle;whiteSpace=wrap;rounded=0;" vertex="1" parent="1">
          <mxGeometry x="-60" y="160" width="60" height="30" as="geometry" />
        </mxCell>
        <mxCell id="0-7ryQPBKPl0MrNLd8Y_-22" style="edgeStyle=orthogonalEdgeStyle;rounded=0;orthogonalLoop=1;jettySize=auto;html=1;exitX=1;exitY=0.75;exitDx=0;exitDy=0;entryX=0.5;entryY=0;entryDx=0;entryDy=0;" edge="1" parent="1" source="0-7ryQPBKPl0MrNLd8Y_-12" target="0-7ryQPBKPl0MrNLd8Y_-20">
          <mxGeometry relative="1" as="geometry" />
        </mxCell>
        <mxCell id="0-7ryQPBKPl0MrNLd8Y_-12" value="Site 1" style="rounded=0;whiteSpace=wrap;html=1;" vertex="1" parent="1">
          <mxGeometry x="-260" y="758.75" width="220" height="71.25" as="geometry" />
        </mxCell>
        <mxCell id="0-7ryQPBKPl0MrNLd8Y_-19" style="edgeStyle=orthogonalEdgeStyle;rounded=0;orthogonalLoop=1;jettySize=auto;html=1;exitX=0;exitY=0.3333333333333333;exitDx=0;exitDy=0;exitPerimeter=0;" edge="1" parent="1" source="0-7ryQPBKPl0MrNLd8Y_-13">
          <mxGeometry relative="1" as="geometry">
            <mxPoint x="-30" y="989" as="targetPoint" />
          </mxGeometry>
        </mxCell>
        <mxCell id="0-7ryQPBKPl0MrNLd8Y_-24" style="edgeStyle=orthogonalEdgeStyle;rounded=0;orthogonalLoop=1;jettySize=auto;html=1;exitX=0;exitY=0.3333333333333333;exitDx=0;exitDy=0;exitPerimeter=0;entryX=1;entryY=0.5;entryDx=0;entryDy=0;" edge="1" parent="1" source="0-7ryQPBKPl0MrNLd8Y_-13" target="0-7ryQPBKPl0MrNLd8Y_-20">
          <mxGeometry relative="1" as="geometry" />
        </mxCell>
        <mxCell id="0-7ryQPBKPl0MrNLd8Y_-13" value="User" style="shape=umlActor;verticalLabelPosition=bottom;verticalAlign=top;html=1;outlineConnect=0;" vertex="1" parent="1">
          <mxGeometry x="290" y="968.75" width="30" height="60" as="geometry" />
        </mxCell>
        <mxCell id="0-7ryQPBKPl0MrNLd8Y_-14" value="Site 2" style="rounded=0;whiteSpace=wrap;html=1;" vertex="1" parent="1">
          <mxGeometry x="-260" y="960" width="220" height="77.5" as="geometry" />
        </mxCell>
        <mxCell id="0-7ryQPBKPl0MrNLd8Y_-20" value="Site assigment 1" style="whiteSpace=wrap;html=1;aspect=fixed;" vertex="1" parent="1">
          <mxGeometry x="35" y="850" width="80" height="80" as="geometry" />
        </mxCell>
        <mxCell id="0-7ryQPBKPl0MrNLd8Y_-29" value="Project Assigment" style="rounded=0;whiteSpace=wrap;html=1;" vertex="1" parent="1">
          <mxGeometry x="187.5" y="240" width="120" height="60" as="geometry" />
        </mxCell>
        <mxCell id="0-7ryQPBKPl0MrNLd8Y_-34" value="" style="endArrow=classic;html=1;rounded=0;exitX=0;exitY=0.5;exitDx=0;exitDy=0;" edge="1" parent="1" source="0-7ryQPBKPl0MrNLd8Y_-6" target="0-7ryQPBKPl0MrNLd8Y_-3">
          <mxGeometry width="50" height="50" relative="1" as="geometry">
            <mxPoint x="330" y="660" as="sourcePoint" />
            <mxPoint x="380" y="610" as="targetPoint" />
          </mxGeometry>
        </mxCell>
        <mxCell id="0-7ryQPBKPl0MrNLd8Y_-35" value="User 1" style="shape=umlActor;verticalLabelPosition=bottom;verticalAlign=top;html=1;outlineConnect=0;" vertex="1" parent="1">
          <mxGeometry x="730" y="230" width="30" height="60" as="geometry" />
        </mxCell>
        <mxCell id="0-7ryQPBKPl0MrNLd8Y_-36" value="" style="endArrow=classic;html=1;rounded=0;entryX=1;entryY=0.5;entryDx=0;entryDy=0;" edge="1" parent="1" source="0-7ryQPBKPl0MrNLd8Y_-35" target="0-7ryQPBKPl0MrNLd8Y_-9">
          <mxGeometry width="50" height="50" relative="1" as="geometry">
            <mxPoint x="330" y="660" as="sourcePoint" />
            <mxPoint x="380" y="610" as="targetPoint" />
          </mxGeometry>
        </mxCell>
        <mxCell id="0-7ryQPBKPl0MrNLd8Y_-37" value="" style="rounded=0;whiteSpace=wrap;html=1;" vertex="1" parent="1">
          <mxGeometry x="-295" y="-400" width="845" height="230" as="geometry" />
        </mxCell>
        <mxCell id="0-7ryQPBKPl0MrNLd8Y_-38" value="Site 1" style="rounded=0;whiteSpace=wrap;html=1;" vertex="1" parent="1">
          <mxGeometry x="-580" y="-323.75" width="220" height="77.5" as="geometry" />
        </mxCell>
        <mxCell id="0-7ryQPBKPl0MrNLd8Y_-41" value="Client" style="rounded=0;whiteSpace=wrap;html=1;" vertex="1" parent="1">
          <mxGeometry x="-245" y="-318.75" width="190" height="67.5" as="geometry" />
        </mxCell>
        <mxCell id="0-7ryQPBKPl0MrNLd8Y_-42" value="Team " style="text;html=1;strokeColor=none;fillColor=none;align=center;verticalAlign=middle;whiteSpace=wrap;rounded=0;" vertex="1" parent="1">
          <mxGeometry x="-100" y="-420" width="60" height="30" as="geometry" />
        </mxCell>
        <mxCell id="0-7ryQPBKPl0MrNLd8Y_-44" value="Team member" style="rounded=0;whiteSpace=wrap;html=1;" vertex="1" parent="1">
          <mxGeometry x="170" y="-323.75" width="120" height="60" as="geometry" />
        </mxCell>
        <mxCell id="0-7ryQPBKPl0MrNLd8Y_-47" value="" style="endArrow=classic;html=1;rounded=0;exitX=0;exitY=0.5;exitDx=0;exitDy=0;" edge="1" parent="1" source="0-7ryQPBKPl0MrNLd8Y_-41" target="0-7ryQPBKPl0MrNLd8Y_-38">
          <mxGeometry width="50" height="50" relative="1" as="geometry">
            <mxPoint x="210" y="140" as="sourcePoint" />
            <mxPoint x="260" y="90" as="targetPoint" />
          </mxGeometry>
        </mxCell>
        <mxCell id="0-7ryQPBKPl0MrNLd8Y_-48" value="User 1" style="shape=umlActor;verticalLabelPosition=bottom;verticalAlign=top;html=1;outlineConnect=0;" vertex="1" parent="1">
          <mxGeometry x="610" y="-323.75" width="30" height="60" as="geometry" />
        </mxCell>
        <mxCell id="0-7ryQPBKPl0MrNLd8Y_-49" value="" style="endArrow=classic;html=1;rounded=0;entryX=1;entryY=0.5;entryDx=0;entryDy=0;" edge="1" parent="1" source="0-7ryQPBKPl0MrNLd8Y_-48" target="0-7ryQPBKPl0MrNLd8Y_-44">
          <mxGeometry width="50" height="50" relative="1" as="geometry">
            <mxPoint x="210" y="140" as="sourcePoint" />
            <mxPoint x="260" y="90" as="targetPoint" />
          </mxGeometry>
        </mxCell>
        <mxCell id="0-7ryQPBKPl0MrNLd8Y_-54" value="User" style="text;html=1;strokeColor=none;fillColor=none;spacing=5;spacingTop=-20;whiteSpace=wrap;overflow=hidden;rounded=0;" vertex="1" parent="1">
          <mxGeometry x="260" y="-90" width="190" height="120" as="geometry" />
        </mxCell>
      </root>
    </mxGraphModel>
  </diagram>
</mxfile>
